<svg xmlns="http://www.w3.org/2000/svg" version="1.1" xmlns:xlink="http://www.w3.org/1999/xlink" width="512" height="512" x="0" y="0" viewBox="0 0 512 512" style="enable-background:new 0 0 512 512" xml:space="preserve" class=""><g><path fill-rule="evenodd" d="M256.25.248c141.376 0 256 114.6 256 256s-114.623 256-256 256-256-114.6-256-256 114.623-256 256-256zm85.278 170.5a20.3 20.3 0 0 0-28.723 28.692l.245.253a20.269 20.269 0 0 0 28.723 0 20.344 20.344 0 0 0 0-28.756zm36.581 63.667-3.138-96.866-96.915-3.172-143.268 143.26 100.053 100.039 143.268-143.265zm40.617-.825-3.179-98.39a39.672 39.672 0 0 0-38.277-38.25l-98.357-3.175a38.747 38.747 0 0 0-29.262 11.565L105.322 249.645a39.649 39.649 0 0 0 0 55.987l101.54 101.562a39.667 39.667 0 0 0 55.967 0l144.324-144.346a38.644 38.644 0 0 0 11.573-29.262zm-121.207-18.6a45.122 45.122 0 0 0-63.916 0 45.252 45.252 0 0 0 0 63.921 4.575 4.575 0 0 1-6.466 6.474 4.656 4.656 0 0 1-1.3-3.873 20.313 20.313 0 1 0-40.25-5.521 45.2 45.2 0 1 0 76.735-25.835 4.577 4.577 0 1 1 7.732-2.412 20.311 20.311 0 1 0 40.028 6.918 45.161 45.161 0 0 0-12.563-39.675z" fill="#f8ae19" opacity="1" data-original="#000000" class=""></path></g></svg>