<svg xmlns="http://www.w3.org/2000/svg" version="1.1" xmlns:xlink="http://www.w3.org/1999/xlink" width="512" height="512" x="0" y="0" viewBox="0 0 64 64" style="enable-background:new 0 0 512 512" xml:space="preserve" class=""><g><path d="M59.59 16.23c-2.144-7.827-10.784-9.518-16.08-8.47l-20.73 4.62a1.99 1.99 0 0 0 0 3.87c6.26 1.45 12.76 6.8 15.27 9.03 1.447 1.31 2.133 2.974 3.77 4.11 9.149 6.762 20.543-2.775 17.77-13.16zM49.85 39.3l-11.54-6.15a2.138 2.138 0 0 0-3.02 2.52l1.97 6.25c.403 1.028.608 4.786.75 6.11.278 5.584 5.556 10.21 10.96 8.07 7.943-2.675 8.24-13.045.88-16.8zM25.71 35.14C15.1 26.46 11.34 19 10.44 16.91a1.927 1.927 0 0 0-3.66.56C6.77 17.65 3.99 42.133 4 42.3c.33 4.88 2 8.55 4.96 10.9 6.287 4.546 14.325 3.458 18.65-1.68a11.889 11.889 0 0 0-1.9-16.38z" fill="#ffffff" opacity="1" data-original="#000000"></path></g></svg>