<svg xmlns="http://www.w3.org/2000/svg" version="1.1" xmlns:xlink="http://www.w3.org/1999/xlink" width="512" height="512" x="0" y="0" viewBox="0 0 469.847 469.847" style="enable-background:new 0 0 512 512" xml:space="preserve" class=""><g><path d="M270.336 234.965 34.39 462.165a40.146 40.146 0 0 1-17.493-33.493V41.258A40.146 40.146 0 0 1 34.39 7.765l235.946 227.2z" style="" fill="#2196f3" data-original="#2196f3" class=""></path><path d="m352.896 155.605-82.56 79.36L34.39 7.765a31.446 31.446 0 0 1 2.773-1.92 40.363 40.363 0 0 1 40.747-.64l274.986 150.4z" style="" fill="#4caf50" data-original="#4caf50" class=""></path><path d="M452.95 234.965a40.79 40.79 0 0 1-21.333 36.267l-78.72 43.093-82.56-79.36 82.56-79.36 78.72 43.093a40.79 40.79 0 0 1 21.333 36.267z" style="" fill="#ffc107" data-original="#ffc107"></path><path d="M352.896 314.325 77.91 464.725a40.897 40.897 0 0 1-40.747-.64 31.446 31.446 0 0 1-2.773-1.92l235.947-227.2 82.559 79.36z" style="" fill="#f44336" data-original="#f44336"></path></g></svg>