<svg xmlns="http://www.w3.org/2000/svg" version="1.1" xmlns:xlink="http://www.w3.org/1999/xlink" width="512" height="512" x="0" y="0" viewBox="0 0 64 64" style="enable-background:new 0 0 512 512" xml:space="preserve" class=""><g><path d="m21.78 23.87-3.16-.45-1.42-2.88c-.34-.68-1.02-1.1-1.77-1.1h-.01c-.75 0-1.43.42-1.76 1.1l-1.4 2.86-3.18.47c-.75.11-1.36.62-1.6 1.34-.23.72-.04 1.5.5 2.02l2.3 2.22-.54 3.17c-.13.74.17 1.48.78 1.93.61.44 1.4.5 2.08.15l2.81-1.5 2.85 1.5a1.934 1.934 0 0 0 2.07-.15c.62-.45.92-1.19.79-1.93l-.54-3.16 2.29-2.23a1.969 1.969 0 0 0-1.09-3.36zM34.83 34.7c.29.15.61.23.92.23.41 0 .81-.13 1.16-.38.61-.45.91-1.19.78-1.93l-.54-3.16 2.29-2.23c.55-.53.74-1.3.5-2.02-.23-.72-.84-1.23-1.59-1.34l-3.16-.45-1.42-2.88c-.34-.68-1.01-1.1-1.77-1.1h-.01c-.75 0-1.43.42-1.76 1.1l-1.4 2.86-3.18.47c-.75.11-1.36.62-1.59 1.34-.24.72-.04 1.5.5 2.02l2.29 2.22-.54 3.17c-.13.74.17 1.48.78 1.93.61.44 1.41.5 2.08.15l2.82-1.5zM54.92 23.87l-3.15-.45-1.43-2.88c-.33-.68-1.01-1.1-1.77-1.1s-1.43.42-1.76 1.1L45.4 23.4l-3.18.47c-.75.11-1.36.62-1.59 1.34s-.04 1.5.5 2.02l2.3 2.22-.55 3.17c-.13.74.17 1.48.79 1.93.61.44 1.4.5 2.07.15l2.82-1.5 2.85 1.5c.29.15.6.23.92.23.4 0 .81-.13 1.15-.38.62-.45.92-1.19.79-1.93l-.54-3.16 2.29-2.23c.54-.53.73-1.3.49-2.02-.23-.72-.84-1.23-1.59-1.34z" fill="#ffd900" opacity="1" data-original="#000000" class=""></path><path d="M56.64 6.85H7.36A5.36 5.36 0 0 0 2 12.21v31.43C2 46.6 4.4 49 7.36 49h3.56v7.15c0 .4.24.76.6.92.13.05.27.08.4.08.25 0 .49-.09.68-.26L21.24 49h35.4C59.6 49 62 46.6 62 43.64V12.21c0-2.96-2.4-5.36-5.36-5.36zM60 43.64A3.36 3.36 0 0 1 56.64 47H20.85c-.25 0-.49.1-.67.26l-7.26 6.62V48c0-.55-.44-1-1-1H7.36A3.36 3.36 0 0 1 4 43.64V12.21c0-1.85 1.51-3.36 3.36-3.36h49.28c1.85 0 3.36 1.51 3.36 3.36z" fill="#fff" opacity="1" data-original="#000000" class=""></path><path d="M27.645 43.354h-.871a1 1 0 1 0 0 2h.871a1 1 0 1 0 0-2zM54.064 43.354H32a1 1 0 1 0 0 2h22.064a1 1 0 1 0 0-2z" fill="#fff" opacity="1" data-original="#000000" class=""></path></g></svg>