<svg xmlns="http://www.w3.org/2000/svg" version="1.1" xmlns:xlink="http://www.w3.org/1999/xlink" width="512" height="512" x="0" y="0" viewBox="0 0 512 512" style="enable-background:new 0 0 512 512" xml:space="preserve" class="hovered-paths"><g><path d="M373.283 102.932 256 0v57.932l-30 90h30v57.931z" style="" fill="#114b5fff" data-original="#0a77e8" class="" opacity="1"></path><path d="M61 252.932c0 44.877 15.563 88.631 43.821 123.204l10.495 12.839 63.595-63.594L171.28 315C158.013 296.953 151 275.489 151 252.932c0-57.897 47.103-105 105-105v-90c-107.523 0-195 87.476-195 195z" style="" fill="#114b5f" data-original="#0f9af0" class="hovered-path" opacity="1"></path><path d="M256 364.068v-57.931L138.717 409.068 256 512v-57.932l30-90z" style="" fill="#114b5fff" data-original="#0a77e8" class="" opacity="1"></path><path d="m407.179 135.864-10.495-12.839-63.595 63.594L340.72 197c13.267 18.047 20.28 39.511 20.28 62.068 0 57.897-47.103 105-105 105v90c107.523 0 195-87.477 195-195 0-44.877-15.562-88.63-43.821-123.204z" style="" fill="#114b5f" data-original="#085aae" class="" opacity="1"></path></g></svg>